<?xml version="1.0" encoding="utf-8"?>
<!-- Generator: Adobe Illustrator 24.0.0, SVG Export Plug-In . SVG Version: 6.00 Build 0)  -->
<svg version="1.1" id="Layer_1" xmlns="http://www.w3.org/2000/svg" xmlns:xlink="http://www.w3.org/1999/xlink" x="0px" y="0px"
	 viewBox="0 0 300 300" style="enable-background:new 0 0 300 300;" xml:space="preserve">
<style type="text/css">
	.st0{fill:#707070;}
	.st1{fill:none;stroke:#707070;stroke-width:16;stroke-miterlimit:10;}
</style>
<g>
	<path class="st0" d="M150,12c36.9,0,71.5,14.4,97.6,40.4S288,113.1,288,150s-14.4,71.5-40.4,97.6S186.9,288,150,288
		s-71.5-14.4-97.6-40.4S12,186.9,12,150s14.4-71.5,40.4-97.6S113.1,12,150,12 M150,0C67.2,0,0,67.2,0,150s67.2,150,150,150
		s150-67.2,150-150S232.8,0,150,0L150,0z"/>
</g>
<g>
	<line class="st1" x1="65.2" y1="150" x2="234.8" y2="150"/>
	<g>
		<polyline class="st1" points="108.2,192.8 65.3,150 108.2,107.2 		"/>
	</g>
</g>
</svg>
